<svg xmlns="http://www.w3.org/2000/svg" xmlns:xlink="http://www.w3.org/1999/xlink" viewBox="0 0 800 600"><style><![CDATA[.B{fill:#fff}.C{fill-rule:nonzero}.D{fill:#1e1f44}.E{fill:#fdd060}]]></style><defs><linearGradient x1="0%" y1="19.166%" x2="100%" y2="80.834%" id="A"><stop stop-color="#febe12" offset="0%"/><stop stop-color="#ff5050" offset="100%"/></linearGradient><path d="M2 0h315a2 2 0 0 1 2 2v271a2 2 0 0 1-2 2H2a2 2 0 0 1-2-2V2a2 2 0 0 1 2-2z" id="B"/><filter x="-40.8%" y="-40%" width="181.5%" height="194.5%" id="C"><feOffset dy="20" in="SourceAlpha"/><feGaussianBlur stdDeviation="40"/><feColorMatrix values="0 0 0 0 1 0 0 0 0 0.396078438 0 0 0 0 0.313725501 0 0 0 1 0"/></filter><linearGradient x1="0%" y1="16.363%" x2="100%" y2="83.637%" id="D"><stop stop-color="#3d41da" offset="0%"/><stop stop-color="#ff5050" offset="100%"/></linearGradient><filter x="-240.6%" y="-248.4%" width="581.2%" height="596.8%" id="E"><feOffset dy="20" in="SourceAlpha"/><feGaussianBlur stdDeviation="30"/><feColorMatrix values="0 0 0 0 1 0 0 0 0 0.396078438 0 0 0 0 0.313725501 0 0 0 1 0" result="C"/><feMerge><feMergeNode in="C"/><feMergeNode in="SourceGraphic"/></feMerge></filter><linearGradient x1="0%" y1="11.622%" x2="100%" y2="88.378%" id="F"><stop stop-color="#3d41da" offset="0%"/><stop stop-color="#ff5050" offset="100%"/></linearGradient><filter x="-155.6%" y="-223.2%" width="411.1%" height="546.4%" id="G"><feOffset dy="20" in="SourceAlpha"/><feGaussianBlur stdDeviation="30"/><feColorMatrix values="0 0 0 0 1 0 0 0 0 0.396078438 0 0 0 0 0.313725501 0 0 0 1 0" result="C"/><feMerge><feMergeNode in="C"/><feMergeNode in="SourceGraphic"/></feMerge></filter><path d="M63.585 46.683V61.17L49.098 46.683H4a4 4 0 0 1-4-4V4a4 4 0 0 1 4-4h78.122a4 4 0 0 1 4 4v38.683a4 4 0 0 1-4 4H63.585z" id="H"/><linearGradient x1="100%" y1="75.225%" x2="0%" y2="24.775%" id="I"><stop stop-color="#1ece8f" offset="0%"/><stop stop-color="#1ec6ce" offset="100%"/></linearGradient><path d="M76.463 40.244v14.488L61.976 40.244H16.878a4 4 0 0 1-4-4V-2.44a4 4 0 0 1 4-4H95a4 4 0 0 1 4 4v38.683a4 4 0 0 1-4 4H76.463z" id="J"/><filter x="-25.5%" y="-32.7%" width="151.1%" height="171.9%" id="K"><feOffset dy="2" in="SourceAlpha"/><feGaussianBlur stdDeviation="7"/><feColorMatrix values="0 0 0 0 0.239215686 0 0 0 0 0.254901961 0 0 0 0 0.854901961 0 0 0 1 0"/></filter><linearGradient x1="0%" y1="24.775%" x2="100%" y2="75.225%" id="L"><stop stop-color="#3d41da" offset="0%"/><stop stop-color="#ff5050" offset="100%"/></linearGradient><linearGradient x1="13.563%" y1="0%" x2="86.437%" y2="100%" id="M"><stop stop-color="#3d41da" offset="0%"/><stop stop-color="#ff5050" offset="100%"/></linearGradient><filter x="-148.1%" y="-148.1%" width="396.2%" height="396.2%" id="N"><feOffset dy="20" in="SourceAlpha"/><feGaussianBlur stdDeviation="30"/><feColorMatrix values="0 0 0 0 1 0 0 0 0 0.396078438 0 0 0 0 0.313725501 0 0 0 0.6 0" result="C"/><feMerge><feMergeNode in="C"/><feMergeNode in="SourceGraphic"/></feMerge></filter><linearGradient x1="0%" y1="30.469%" x2="100%" y2="69.531%" id="O"><stop stop-color="#3d41da" offset="0%"/><stop stop-color="#ff5050" offset="100%"/></linearGradient><linearGradient x1="0%" y1="42.969%" x2="100%" y2="57.031%" id="P"><stop stop-color="#3d41da" offset="0%"/><stop stop-color="#ff5050" offset="100%"/></linearGradient></defs><g fill="none" fill-rule="evenodd"><path d="M393.356 39c-139.15 0-296.762 137.465-281.303 360.035S394.1 567.513 510.077 517.642C712.1 430.767 877.3 181.22 704.732 195.85 535.144 210.227 560.6 39 393.356 39z" fill="url(#A)" transform="matrix(1 0 0 -1 0 601)"/><path d="M286.902 253.13c.917-.37 1.96.08 2.326 1.004a1.808 1.808 0 0 1-.997 2.344l-11.96 4.82c-.92.37-1.96-.08-2.327-1.004a1.808 1.808 0 0 1 .997-2.345l11.96-4.82zm-24.12 9.722c.918-.37 1.96.08 2.326 1.004a1.808 1.808 0 0 1-.997 2.345l-13.68 5.514c-.918.37-1.96-.08-2.327-1.005a1.808 1.808 0 0 1 .997-2.344l13.682-5.514zm-26.056 10.502c.918-.37 1.96.08 2.327 1.004a1.808 1.808 0 0 1-.997 2.345l-14.503 5.845c-.918.37-1.96-.08-2.327-1.004a1.808 1.808 0 0 1 .997-2.345l14.503-5.845zM47.7 353.424a5.37 5.37 0 0 1 .03.57c0 2.99-2.404 5.4-5.37 5.4s-5.37-2.42-5.37-5.4 2.404-5.4 5.37-5.4c1.48 0 2.82.603 3.8 1.58l163.85-66.043c.918-.37 1.96.08 2.327 1.005a1.808 1.808 0 0 1-.997 2.344L47.7 353.424z" class="C E"/><g transform="translate(241 159)"><use fill="#000" filter="url(#C)" xlink:href="#B"/><use xlink:href="#B" class="B"/><circle fill="#ff6550" cx="12.013" cy="10.678" r="2.669"/><circle fill="#febe12" cx="21.356" cy="10.678" r="2.669"/><circle fill="#1ece8e" cx="30.699" cy="10.678" r="2.669"/><path d="M0 21.356h319V279a4 4 0 0 1-4 4H4a4 4 0 0 1-4-4V21.356z" fill="url(#D)"/><path d="M48 46h43v20H48V46zm0 40h123v92H48V86zm0 119h43v36H48v-36zm48 0h43v36H96v-36zm48 0h43v36h-43v-36zm48 0h43v36h-43v-36zM48 245h35v5H48v-5zm48 0h35v5H96v-5zm48 0h35v5h-35v-5zm48 0h35v5h-35v-5zm-8-159h91v16h-91V86zm0 27h91v6h-91v-6zm0 8h83v6h-83v-6zm0 8h88v6h-88v-6zm0 8h86v6h-86v-6zm0 8h38v6h-38v-6zm11 16h48c6.075 0 11 4.925 11 11s-4.925 11-11 11h-48c-6.075 0-11-4.925-11-11s4.925-11 11-11zM172 52h35a4 4 0 1 1 0 8h-35a4 4 0 1 1 0-8zm56 0h19a4 4 0 1 1 0 8h-19a4 4 0 1 1 0-8zm40 0h19a4 4 0 1 1 0 8h-19a4 4 0 1 1 0-8z" fill="#3d41da" opacity=".4"/><path d="M50.72 4.004h252.263a6.674 6.674 0 0 1 0 13.347H50.72a6.674 6.674 0 0 1 0-13.347z" class="E"/><path d="M0 60h24v24H0z" class="D"/><path d="M15.6 65.495a20.106 20.106 0 0 0-2.058-.095c-2.04 0-3.44 1.095-3.44 3.102v1.73H7.8v2.348h2.302v6.02h2.763v-6.02h2.293l.352-2.35h-2.645v-1.5c0-.674.207-1.142 1.318-1.142H15.6v-2.094z" class="B"/><path d="M0 108h24v24H0z" class="D"/><path d="M6.6 118.35c0 1.086.463 2.67 1.737 3.027.044.008.107.025.15.025.294 0 .463-.763.463-.98 0-.257-.703-.804-.703-1.874 0-2.222 1.817-3.798 4.168-3.798 2.02 0 3.518 1.07 3.518 3.035 0 1.468-.633 4.22-2.68 4.22-.74 0-1.372-.497-1.372-1.2 0-1.045.784-2.057.784-3.135 0-.655-.4-1.186-1.15-1.186-1.015 0-1.64 1.06-1.64 1.9 0 .464.063.98.285 1.402-.4 1.642-1.246 4.088-1.246 5.78 0 .522.08 1.037.133 1.56l.08.082.125-.04c1.496-1.908 1.443-2.28 2.12-4.777.365.646 1.31.995 2.057.995 3.153 0 4.57-2.86 4.57-5.44 0-2.746-2.547-4.537-5.344-4.537-3.046 0-6.056 1.9-6.056 4.95z" class="B"/><path d="M0 84h24v24H0z" class="D"/><path d="M19.197 92.47a5.414 5.414 0 0 1-1.555.426c.56-.335.99-.866 1.2-1.498a5.422 5.422 0 0 1-1.719.657 2.708 2.708 0 0 0-4.614 2.47 7.687 7.687 0 0 1-5.58-2.83 2.706 2.706 0 0 0 .838 3.615 2.697 2.697 0 0 1-1.227-.338v.034a2.71 2.71 0 0 0 2.172 2.655 2.711 2.711 0 0 1-1.223.046 2.71 2.71 0 0 0 2.53 1.88A5.433 5.433 0 0 1 6 100.71a7.664 7.664 0 0 0 4.15 1.216c4.98 0 7.704-4.126 7.704-7.703 0-.118-.002-.235-.008-.35a5.503 5.503 0 0 0 1.351-1.402" class="B"/><path d="M0 132h24v24H0z" class="D"/><path d="M18.6 148.054c0 .743-.593 1.346-1.314 1.346H6.714c-.726 0-1.314-.604-1.314-1.346V143c0-.553.38-.774.853-.492l4.928 2.94c.47.28 1.17.28 1.638 0l4.928-2.94c.47-.28.853-.053.853.492v5.055zm0-8.108c0-.742-.588-1.346-1.314-1.346H6.714c-.72 0-1.314.603-1.314 1.346 0 .486.393 1.115.86 1.393l5.42 3.234a.75.75 0 0 0 .64 0l5.42-3.234c.475-.283.86-.953.86-1.393z" class="B"/><path d="M0 156h24v24H0z" class="D"/><path d="M13.2 166.8h3.6v2.4h-3.6v3.6h-2.4v-3.6H7.2v-2.4h3.6v-3.6h2.4v3.6z" class="B"/></g><g filter="url(#E)" transform="translate(530 135)" class="C"><path d="M32 0C14.37 0 0 12.328 0 27.758c0 8.96 4.913 16.76 12.467 21.85-.01.3.01.787-.385 2.24-.484 1.806-1.473 4.344-3.473 7.208L7.185 61.09h2.483c8.615 0 13.598-5.603 14.37-6.503a34.66 34.66 0 0 0 7.962.933c17.63 0 32-12.328 32-27.763S49.63 0 32 0z" class="B"/><path d="M32 44.582l-.466-.386c-.883-.74-2.08-1.54-3.466-2.466-5.4-3.616-12.795-8.565-12.795-17.003 0-5.213 4.24-9.454 9.454-9.454A9.432 9.432 0 0 1 32 18.69a9.432 9.432 0 0 1 7.273-3.417c5.213 0 9.454 4.24 9.454 9.454 0 8.438-7.395 13.387-12.795 17.003-1.387.926-2.583 1.727-3.466 2.466l-.466.386z" fill="url(#F)"/></g><g filter="url(#G)" transform="translate(198 407)"><path d="M63.585 53.122V67.6L49.098 53.122H4a4 4 0 0 1-4-4V10.44a4 4 0 0 1 4-4h78.122a4 4 0 0 1 4 4v38.683a4 4 0 0 1-4 4H63.585z" fill="#e9f8f9"/><g transform="translate(0 6.439)"><mask id="Q" class="B"><use xlink:href="#H"/></mask><use xlink:href="#H" class="B"/><g opacity=".3" mask="url(#Q)"><use fill="#000" filter="url(#K)" xlink:href="#J"/><use fill="url(#I)" xlink:href="#J"/></g></g><path d="M76.463 46.683V61.17L61.976 46.683H16.878a4 4 0 0 1-4-4V4a4 4 0 0 1 4-4H95a4 4 0 0 1 4 4v38.683a4 4 0 0 1-4 4H76.463z" fill="url(#L)"/></g><g filter="url(#E)" transform="translate(118 74)" class="C"><path d="M32 0c17.63 0 32 12.328 32 27.758 0 8.96-4.913 16.76-12.467 21.85.01.3-.01.787.385 2.24.484 1.806 1.473 4.344 3.473 7.208l1.424 2.034h-2.483c-8.615 0-13.598-5.603-14.37-6.503a34.659 34.659 0 0 1-7.962.933c-17.63 0-32-12.328-32-27.763S14.37 0 32 0z" class="B"/><path d="M41.745 43.906H24.77c-4.433 0-8.042-3.605-8.042-8.04v-8.398c0-1.734.506-3.32 1.508-4.718l10-13.77c.625-1.043 1.68-1.706 2.778-1.706 1.484 0 3.574 1.274 3.574 4.11 0 .8-.22 1.354-.436 1.882-.052.125-.105.254-.157.394-.335.94-2.105 4.94-3.033 7.015l11.158.09c2.548 0 4.084 1.724 4.084 3.393 0 .572-.094 1.354-.175 1.905.786.468 1.962 1.473 1.962 3.278 0 1.256-.604 2.185-1.183 2.792.6.544 1.183 1.4 1.183 2.66 0 1.793-1.236 2.88-2.12 3.43a5.27 5.27 0 0 1 .332 1.84c0 1.605-1.7 3.842-4.468 3.842z" fill="url(#M)"/></g><g filter="url(#N)" transform="translate(518 390)"><path fill="url(#O)" d="M0 39h104v65H0z"/><g class="B"><path opacity=".9" d="M0 39l104 65H0z"/><path d="M104 39L0 104h104z"/></g><path d="M2.775 33.45L0 39h104l-2.775-5.55a4 4 0 0 0-1.359-1.54L54.22 1.48a4 4 0 0 0-4.438 0L4.134 31.9a4 4 0 0 0-1.36 1.54z" fill="url(#P)"/></g><path d="M441.902 427.13c.917-.37 1.96.08 2.326 1.004a1.808 1.808 0 0 1-.997 2.344l-11.96 4.82c-.92.37-1.96-.08-2.327-1.004a1.808 1.808 0 0 1 .997-2.345l11.96-4.82zm-24.12 9.722c.918-.37 1.96.08 2.326 1.004a1.808 1.808 0 0 1-.997 2.345l-13.68 5.514c-.918.37-1.96-.08-2.327-1.005a1.808 1.808 0 0 1 .997-2.344l13.682-5.514zm-26.056 10.502c.918-.37 1.96.08 2.327 1.004a1.808 1.808 0 0 1-.997 2.345l-14.503 5.845c-.918.37-1.96-.08-2.327-1.004a1.808 1.808 0 0 1 .997-2.345l14.503-5.845zm-189.016 80.07a5.37 5.37 0 0 1 .03.57c0 2.99-2.404 5.4-5.37 5.4s-5.37-2.42-5.37-5.4 2.404-5.4 5.37-5.4c1.48 0 2.82.603 3.8 1.58L365 458.12c.918-.37 1.96.08 2.327 1.005a1.808 1.808 0 0 1-.997 2.344L202.7 527.424zM717.902 159.13c.917-.37 1.96.08 2.326 1.004a1.808 1.808 0 0 1-.997 2.344l-11.96 4.82c-.92.37-1.96-.08-2.327-1.004a1.808 1.808 0 0 1 .997-2.345l11.96-4.82zm-24.12 9.722c.918-.37 1.96.08 2.326 1.004a1.808 1.808 0 0 1-.997 2.345l-13.68 5.514c-.918.37-1.96-.08-2.327-1.005a1.808 1.808 0 0 1 .997-2.344l13.682-5.514zm-26.056 10.502c.918-.37 1.96.08 2.327 1.004a1.808 1.808 0 0 1-.997 2.345l-14.503 5.845c-.918.37-1.96-.08-2.327-1.004a1.808 1.808 0 0 1 .997-2.345l14.503-5.845zm-189.016 80.07a5.37 5.37 0 0 1 .03.57c0 2.99-2.404 5.4-5.37 5.4s-5.37-2.42-5.37-5.4 2.404-5.4 5.37-5.4c1.48 0 2.82.603 3.8 1.58L641 190.12c.918-.37 1.96.08 2.327 1.005a1.808 1.808 0 0 1-.997 2.344L478.7 259.424z" class="C E"/><g class="B"><circle cx="472.499" cy="467.5" r="4.5"/><circle cx="431.999" cy="195" r="4"/><circle cx="225.999" cy="361" r="2"/><path d="M216.2 231.163h-4.186v-6.55c0-1.56-.027-3.57-2.175-3.57-2.18 0-2.51 1.7-2.51 3.46v6.66h-4.18v-13.468h4.01v1.84h.058c.56-1.06 1.924-2.175 3.96-2.175 4.24 0 5.022 2.788 5.022 6.416v7.386zm-17.772-15.308a2.43 2.43 0 0 1-2.427-2.427 2.43 2.43 0 0 1 2.427-2.428 2.43 2.43 0 0 1 2.428 2.428 2.43 2.43 0 0 1-2.428 2.427zm-2.097 1.84h4.2v13.468h-4.2v-13.468zm245.91 307.083c3.64-.364 6.4-2.63 6.16-5.06-.233-2.427-3.377-4.1-7.02-3.734s-6.4 2.63-6.163 5.06 3.38 4.1 7.022 3.734zm7.28-8.063c1.263.397 2.668 1.36 2.665 3.055 0 2.803-3.978 6.334-9.96 6.334-4.56 0-9.226-2.248-9.226-5.942 0-1.933 1.205-4.17 3.278-6.275 2.77-2.815 6.003-4.098 7.216-2.86.535.545.586 1.486.243 2.61-.182.565.522.253.522.253 2.24-.953 4.194-1.008 4.908.028.382.555.345 1.33-.007 2.226-.16.413.052.475.362.57zm3.973-6.762c1.397 1.577 1.86 3.774 1.217 5.78v.003a.84.84 0 0 1-1.06.55c-.445-.15-.687-.63-.542-1.077.456-1.428.128-3-.865-4.113-.98-1.114-2.49-1.6-3.94-1.296a.84.84 0 0 1-.998-.656c-.1-.46.19-.91.647-1.015a5.76 5.76 0 0 1 5.541 1.823zm-2.218 2.035c.704.792.892 1.87.59 2.818-.057.185-.186.34-.357.428s-.372.106-.556.047a.74.74 0 0 1-.467-.928c.148-.463.054-1-.29-1.38-.33-.372-.834-.536-1.32-.43-.19.04-.386.003-.547-.103s-.274-.272-.312-.462a.74.74 0 0 1 .559-.875 2.8 2.8 0 0 1 2.698.885zm-8.835 8.393c.122-.225.043-.475-.176-.555-.215-.086-.485.018-.613.234s-.057.466.16.555.5-.012.628-.234zm-1.162 1.5c.346-.576.164-1.233-.407-1.482-.564-.24-1.292.006-1.64.56s-.186 1.222.373 1.48c.567.262 1.323.012 1.675-.558zm1.323-4.04c1.794.472 2.7 2.2 1.976 3.86-.744 1.705-2.88 2.618-4.695 2.023-1.748-.574-2.492-2.33-1.724-3.913.753-1.55 2.7-2.43 4.443-1.97z"/><path d="M556.047 341a4.06 4.06 0 0 0-4.048 4.048v25.904a4.06 4.06 0 0 0 4.048 4.048h13.626a.81.81 0 0 0 .264 0h4.593a.81.81 0 0 0 .264 0h7.157a4.06 4.06 0 0 0 4.048-4.048v-25.904a4.06 4.06 0 0 0-4.048-4.048h-25.904zm0 1.62h25.904c.645-.003 1.265.25 1.722.708s.71 1.076.708 1.72v25.904c.003.645-.252 1.265-.708 1.72s-1.076.71-1.722.708h-6.476v-11.333h3.093l1.134-5.667h-4.227v-1.62c0-.45.043-.486.195-.584s.62-.225 1.424-.225h2.43v-4.558l-.462-.22s-1.86-.888-4.395-.888c-1.822 0-3.318.725-4.276 1.922s-1.4 2.8-1.4 4.554v1.62h-2.43v5.667H569v11.333h-12.953c-.645.003-1.265-.252-1.72-.708s-.71-1.076-.708-1.72v-25.904c-.003-.645.252-1.265.708-1.72s1.076-.71 1.72-.708zm18.62 7.286c1.683 0 2.742.37 3.238.567v1.86h-.8c-.93 0-1.678.077-2.306.486s-.932 1.183-.932 1.943V358h3.87l-.486 2.43h-3.384v12.952h-3.238V360.43H568.2V358h2.428v-3.238c0-1.484.376-2.715 1.037-3.542s1.594-1.315 3-1.315z" class="C"/><circle cx="611.499" cy="348.5" r="6.5"/><circle cx="752.999" cy="408" r="4"/><path d="M674.14 374.497c0-.305-.143-.55-.43-.73-1.843-1.098-3.977-1.647-6.402-1.647-1.27 0-2.64.162-4.1.487-.402.086-.602.334-.602.745a.7.7 0 0 0 .193.494.66.66 0 0 0 .509.207c.047 0 .224-.038.53-.114 1.26-.258 2.42-.387 3.48-.387 2.158 0 4.053.492 5.686 1.475.182.105.34.158.473.158a.66.66 0 0 0 .473-.193c.134-.13.206-.31.2-.495zm1.375-3.08a.96.96 0 0 0-.501-.874c-2.263-1.346-4.88-2.02-7.85-2.02-1.46 0-2.907.2-4.34.602-.457.124-.687.43-.687.917a.83.83 0 0 0 .86.859c.067 0 .243-.038.53-.114 1.172-.316 2.38-.475 3.595-.473 2.664 0 4.994.592 7 1.776.23.124.4.186.544.186a.83.83 0 0 0 .859-.859zm1.547-3.552a1.08 1.08 0 0 0-.573-1.003c-1.203-.697-2.602-1.224-4.197-1.582-1.612-.36-3.26-.54-4.912-.538-1.948 0-3.686.225-5.214.674a1.13 1.13 0 0 0-.551.365c-.148.177-.222.408-.222.695 0 .296.098.544.293.744a.99.99 0 0 0 .738.301c.105 0 .296-.038.573-.114 1.27-.354 2.735-.53 4.397-.53 1.518 0 2.996.162 4.433.487s2.647.778 3.63 1.36c.2.115.392.172.574.172.277 0 .518-.098.723-.293s.315-.46.308-.738zM680 370a10.76 10.76 0 0 1-1.475 5.521 10.95 10.95 0 0 1-4.003 4.004c-1.686.983-3.526 1.475-5.522 1.475a10.76 10.76 0 0 1-5.521-1.475 10.95 10.95 0 0 1-4.004-4.004 10.76 10.76 0 0 1-1.475-5.521 10.76 10.76 0 0 1 1.475-5.521 10.95 10.95 0 0 1 4.004-4.004 10.76 10.76 0 0 1 5.521-1.475c1.996 0 3.836.492 5.522 1.475a10.95 10.95 0 0 1 4.003 4.004 10.76 10.76 0 0 1 1.475 5.521zm-34.563-95.39l.295-1.7c.066-.287.082-.48.05-.578l-.083-.28c0-.022.006-.05.017-.083s.038-.06.082-.082c.074-.02.146-.047.213-.083.13-.057.27-.085.4-.082a1.56 1.56 0 0 1 .558.033c.16.034.3.13.393.264a.95.95 0 0 1 .082.347c.01.143-.005.302-.05.48l-.46 2.543c-.043.308-.02.512.066.6s.23.15.427.15c.1 0 .24-.022.394-.066a1.48 1.48 0 0 0 .426-.199l.525-2.972c.044-.287.05-.48.016-.578a.89.89 0 0 1-.049-.281c0-.022.006-.05.016-.083s.04-.06.083-.082c.074-.02.146-.047.213-.083.13-.057.27-.085.4-.082a1.56 1.56 0 0 1 .558.033c.175.044.295.132.36.264.07.102.105.224.1.347a3.91 3.91 0 0 1-.033.479l-.69 3.83c-.044.287-.05.48-.016.58l.082.247c.001.04-.005.078-.017.116-.01.032-.038.06-.082.082-.022.022-.098.055-.23.1-.138.045-.28.067-.426.065-.24.022-.46 0-.656-.066s-.306-.22-.328-.462c-.3.13-.606.24-.92.33-.306.088-.524.132-.656.132-.547 0-.924-.193-1.132-.578s-.256-.864-.147-1.437l.197-1.172zm5.724 3.22a.63.63 0 0 1-.377-.264.95.95 0 0 1-.082-.347 1.51 1.51 0 0 1 .05-.479l.163-1.024.525-3.006c.022-.198.022-.34 0-.43-.015-.068-.037-.134-.065-.198 0-.044.005-.082.016-.116s.04-.06.083-.082a.96.96 0 0 0 .213-.083c.13-.056.27-.084.41-.082a1.79 1.79 0 0 1 .592.033c.2.037.343.177.397.363a6.17 6.17 0 0 1 .81-.363c.295-.1.597-.154.882-.132a2.11 2.11 0 0 1 .615.148c.175.077.18.226.477.446v.033c0-.154.486-.303.836-.446s.628-.203.934-.18c.22.022.415.066.6.132s.317.23.427.495c.087.154.13.347.13.578s-.022.48-.066.743l-.6 3.27c-.022.22-.017.37.016.446a.55.55 0 0 1 .05.215c.001.04-.005.078-.017.116a.21.21 0 0 1-.05.082.64.64 0 0 0-.229.082.95.95 0 0 1-.426.083 1.45 1.45 0 0 1-.542-.033.63.63 0 0 1-.377-.264c-.07-.102-.104-.224-.098-.347a3.88 3.88 0 0 1 .032-.479l.493-2.774c.043-.242.032-.424-.033-.545s-.186-.182-.36-.182a.99.99 0 0 0-.361.1 1.69 1.69 0 0 0-.394.23l-.557 3.336c-.044.154-.05.28-.017.38l.082.215c.001.04-.01.082-.033.116a.55.55 0 0 1-.065.082c-.074.02-.146.046-.214.082-.13.057-.27.085-.4.083-.218.022-.4.01-.573-.033a.63.63 0 0 1-.378-.264c-.05-.11-.077-.227-.082-.347a1.52 1.52 0 0 1 .05-.479l.46-2.74c.043-.265.038-.457-.017-.578s-.18-.182-.377-.182a.99.99 0 0 0-.36.1c-.14.058-.274.136-.394.23l-.558 3.303c-.044.155-.05.28-.017.38l.082.248c.001.04-.005.078-.016.116-.01.032-.038.06-.082.082-.074.02-.145.046-.213.082-.13.057-.27.085-.4.083a1.6 1.6 0 0 1-.575-.033zm-10.153 3.666c-.14.084-.298.13-.46.132-.14.006-.273-.055-.36-.165s-.07-.402.05-.875.683-.798 1.688-.974c-.306 1.08-.612 1.706-.918 1.882zm17.928-2.146c-.08-.347-.27-.66-.54-.892-.023-.022-.056-.033-.1-.033s-.076.01-.098.033c-.962.572-2.04.892-3.23.957a19.98 19.98 0 0 1-3.69-.148l-3.806-.628c-1.2-.243-2.396-.403-3.61-.48l1.378-7.96a1.54 1.54 0 0 0 .05-.479c-.006-.12-.034-.238-.083-.347a.6.6 0 0 0-.377-.297 1.6 1.6 0 0 0-.574-.033 1.97 1.97 0 0 0-.41.1c-.076.022-.147.055-.213.098-.044.022-.072.05-.083.083a.27.27 0 0 0-.016.083.86.86 0 0 0 .05.28c.032.1.027.292-.017.578 0 .067-.093.622-.28 1.668l-.574 3.188a4.78 4.78 0 0 1-1.624.66c-.558.1-.902.066-1.033-.132-.066-.088-.1-.22-.1-.396a2.45 2.45 0 0 1 .099-.628l.36-1.337.46-1.734c.153-.64.147-1.206-.017-1.702s-.563-.776-1.197-.842c-.537-.05-1.077.053-1.558.298-.47.242-.793.45-.968.627-.107.102-.156.25-.132.397.022.154.088.32.197.495a2.2 2.2 0 0 0 .263.33l.164.165c.035.02.075.03.115.033a.11.11 0 0 0 .082-.033 2.54 2.54 0 0 1 .705-.495c.274-.132.465-.143.574-.033a.38.38 0 0 1 .148.346 2.27 2.27 0 0 1-.082.446l-1.017 3.898a2.25 2.25 0 0 0-.017 1.172c.1.364.3.634.607.8.438.264 1.05.32 1.837.165s1.4-.386 1.805-.694l-.23 1.222c-.35.022-.743.1-1.18.232-.416.122-.814.3-1.182.528-.703.394-1.217 1.055-1.427 1.833-.23.804-.115 1.46.345 1.965.437.485.984.688 1.64.612s1.148-.226 1.476-.446c.547-.353.957-.848 1.23-1.487a8.51 8.51 0 0 0 .575-1.915c1.093.044 2.318.23 3.674.56l4.1.842c1.378.232 2.702.336 3.97.314s2.362-.352 3.28-1c.285-.2.378-.485.28-.86M417 120l-4.536.066c-1.17.054-1.97.24-2.67.512a5.39 5.39 0 0 0-3.217 3.217c-.272.7-.458 1.5-.512 2.67L406 131l.066 4.535c.054 1.17.24 1.97.512 2.67a5.39 5.39 0 0 0 3.217 3.218c.7.27 1.5.457 2.67.5L417 142l4.535-.066c1.17-.054 1.97-.24 2.67-.51a5.39 5.39 0 0 0 3.218-3.218c.272-.7.458-1.5.5-2.67L428 131l-.066-4.535c-.053-1.17-.24-1.97-.51-2.67a5.39 5.39 0 0 0-3.217-3.217c-.7-.272-1.5-.458-2.67-.512L417 120zm0 1.982l4.444.064c1.073.05 1.655.228 2.043.38.513.2.88.438 1.264.823s.624.75.823 1.265c.15.387.33.97.38 2.042l.064 4.445-.064 4.445c-.05 1.072-.228 1.655-.38 2.042a3.41 3.41 0 0 1-2.087 2.088c-.388.15-.97.33-2.043.38l-4.445.064c-2.937 0-3.285-.01-4.445-.064-1.072-.05-1.655-.228-2.042-.38a3.41 3.41 0 0 1-2.088-2.088c-.15-.387-.33-.97-.38-2.042L407.98 131l.064-4.445c.05-1.072.228-1.655.38-2.042a3.41 3.41 0 0 1 2.088-2.088c.387-.15.97-.33 2.042-.38l4.445-.064zm0 12.685a3.67 3.67 0 0 1-3.667-3.667 3.67 3.67 0 0 1 3.667-3.667 3.67 3.67 0 0 1 3.667 3.667 3.67 3.67 0 0 1-3.667 3.667zm0-9.316a5.65 5.65 0 0 0-5.649 5.648 5.65 5.65 0 0 0 5.649 5.65 5.65 5.65 0 0 0 5.649-5.649 5.65 5.65 0 0 0-5.649-5.649zm7.2-.223a1.32 1.32 0 0 1-1.99 1.173 1.32 1.32 0 0 1-.649-1.173 1.32 1.32 0 0 1 2.64 0"/><circle cx="264.499" cy="135.5" r="2.5"/></g><path d="M612.138 244a3.08 3.08 0 0 1-.168-.005l-.1.005c-1.303 0-2.14-.63-2.95-1.24-.558-.42-1.085-.817-1.707-.927-.296-.053-.596-.08-.896-.08-.525 0-.94.086-1.242.15-.152.038-.306.06-.462.07a.29.29 0 0 1-.322-.245l-.125-.543c-.092-.45-.158-.728-.335-.757-2.067-.34-2.66-.804-2.8-1.133-.02-.045-.03-.093-.033-.14-.01-.123.074-.234.195-.26 3.178-.557 4.603-4.017 4.662-4.164l.005-.012c.194-.42.233-.785.114-1.083-.22-.548-.93-.79-1.4-.948l-.31-.11c-.94-.396-1.018-.802-.98-1 .062-.352.505-.598.862-.598.1 0 .185.02.258.055.422.2.803.318 1.132.318.454 0 .652-.204.676-.23l-.04-.716c-.095-1.6-.212-3.6.263-4.724 1.425-3.403 4.445-3.668 5.337-3.668l.39-.004h.053c.894 0 3.922.265 5.347 3.67.475 1.135.358 3.126.263 4.725l-.004.07-.036.646c.022.025.205.212.616.23.314-.013.673-.12 1.068-.316a.76.76 0 0 1 .331-.07.96.96 0 0 1 .382.078l.006.003c.32.12.53.36.533.608.004.234-.164.587-.988.934l-.3.11c-.472.16-1.183.4-1.4.948-.12.298-.082.662.113 1.083l.005.012c.06.147 1.483 3.606 4.662 4.164.117.02.2.132.195.26a.44.44 0 0 1-.033.141c-.13.327-.722.8-2.8 1.13-.17.028-.234.263-.335.755l-.125.54c-.044.16-.138.235-.296.235h-.025c-.1 0-.266-.02-.463-.062a5.81 5.81 0 0 0-1.242-.14c-.292 0-.594.027-.897.08-.62.1-1.147.506-1.704.926-.81.61-1.647 1.24-2.95 1.24M163.1 174.52c-.258.124-.753.23-1.122.24-1.115.03-1.33-.782-1.34-1.372v-4.333h2.795v-2.107h-2.785v-3.546h-2.04c-.033 0-.092.03-.1.104-.12 1.085-.627 3-2.74 3.75v1.798h1.41v4.548c0 1.557 1.148 3.77 4.18 3.717 1.024-.017 2.16-.445 2.41-.815l-.67-1.985" fill="#fffffe"/><g class="B"><circle cx="217.999" cy="93" r="4"/><path d="M278 70.252c0 1.8.77 4.45 2.894 5.045.074.014.178.04.252.04.5 0 .772-1.27.772-1.63 0-.43-1.173-1.34-1.173-3.124 0-3.705 3.028-6.33 6.947-6.33 3.37 0 5.863 1.783 5.863 5.06 0 2.446-1.054 7.035-4.468 7.035-1.232 0-2.286-.83-2.286-2.018 0-1.74 1.307-3.428 1.307-5.224 0-1.092-.668-1.977-1.915-1.977-1.692 0-2.73 1.77-2.73 3.165 0 .774.104 1.63.475 2.336-.683 2.737-2.08 6.815-2.08 9.634 0 .87.134 1.728.223 2.6l.134.138.208-.07c2.493-3.178 2.404-3.8 3.532-7.96.61 1.077 2.182 1.658 3.43 1.658 5.254 0 7.614-4.77 7.614-9.067 0-4.575-4.245-7.56-8.906-7.56C283.016 62 278 65.15 278 70.252zm79.963 434.697s-.167-.48-1.2-.347l-3.447.024c-.264-.036-.455.07-.455.07s-.204.108-.3.372c-.562 1.448-1.28 2.693-1.28 2.693-1.533 2.6-2.156 2.754-2.407 2.587-.587-.37-.43-1.51-.43-2.323 0-2.538.383-3.592-.755-3.867-.37-.084-.646-.144-1.616-.156-1.233-.012-2.275 0-2.862.287-.395.192-.694.623-.514.647.227.036.742.144 1.017.515 0 0 .3.5.347 1.568.132 2.98-.478 3.353-.478 3.353-.467.25-1.282-.168-2.48-2.634 0 0-.694-1.222-1.233-2.563-.096-.25-.287-.383-.287-.383s-.216-.167-.527-.215l-3.28.024c-.504 0-.683.227-.683.227s-.18.192-.012.587c2.562 6.022 5.483 9.04 5.483 9.04s2.67 2.8 5.7 2.598h1.376c.42-.036.635-.264.635-.264s.192-.215.18-.6c-.024-1.844.838-2.12.838-2.12.838-.263 1.915 1.784 3.065 2.575 0 0 .874.598 1.532.467l3.065-.048c1.617-.012.85-1.353.85-1.353-.06-.108-.442-.934-2.286-2.646-1.916-1.784-1.665-1.497.658-4.586 1.413-1.88 1.976-3.03 1.796-3.52z"/><circle cx="551.499" cy="282.5" r="2.5"/><path d="M196.666 345.65c-.4-2.3-1.07-4.68-2.005-7.133h-.03l-.028.015-.616.236c-.257.1-.74.334-1.446.702s-1.36.76-1.962 1.174-1.227.962-1.877 1.64-1.14 1.385-1.475 2.12l-.215-.158c1.757 1.433 3.753 2.15 5.987 2.15 1.26 0 2.483-.248 3.667-.745zm-2.65-8.694l-.76-1.6c-2.97.888-6.182 1.332-9.638 1.332-.01.067-.015.167-.015.3 0 1.184.2 2.313.63 3.387.413 1.062 1.015 2.04 1.777 2.886a12.01 12.01 0 0 1 1.768-2.384c.702-.74 1.383-1.335 2.04-1.784l1.87-1.16c.587-.324 1.062-.554 1.425-.687l.53-.186.186-.05a1.13 1.13 0 0 0 .186-.065zm-1.533-3.036c-1.145-2.034-2.3-3.84-3.494-5.414a9.27 9.27 0 0 0-3.352 2.664 9.28 9.28 0 0 0-1.833 3.895c2.883 0 5.777-.382 8.68-1.145zm9.797 4.57c-2.005-.573-3.958-.712-5.858-.416a40.35 40.35 0 0 1 1.834 6.718c1.06-.715 1.96-1.64 2.65-2.715.704-1.087 1.172-2.308 1.374-3.587zm-11.53-10.614c-.01 0-.02.005-.028.015.01-.01.02-.015.028-.015zm8.45 2.077c-1.766-1.566-3.833-2.35-6.2-2.35a9.44 9.44 0 0 0-2.221.272c1.25 1.624 2.425 3.447 3.523 5.472a13.24 13.24 0 0 0 1.862-.867c.583-.33 1.044-.623 1.383-.88a9.34 9.34 0 0 0 .938-.817l.537-.58.18-.25zm3.195 6.947a9.19 9.19 0 0 0-2.134-5.873l-.015.015-.272.35c-.095.12-.303.332-.623.638a11.78 11.78 0 0 1-1.017.866c-.358.273-.835.583-1.432.93a14.61 14.61 0 0 1-1.883.924l.63 1.36.093.25a1.78 1.78 0 0 0 .107.237l1.067-.1c.68-.037 1.36-.04 2.04-.007.808.035 1.614.11 2.414.23l.523.086.358.064.143.03zm1.604.1a10.76 10.76 0 0 1-1.475 5.521 10.95 10.95 0 0 1-4.003 4.004c-1.686.983-3.526 1.475-5.522 1.475a10.76 10.76 0 0 1-5.521-1.475 10.95 10.95 0 0 1-4.004-4.004 10.76 10.76 0 0 1-1.475-5.521 10.76 10.76 0 0 1 1.475-5.521 10.95 10.95 0 0 1 4.004-4.004 10.76 10.76 0 0 1 5.521-1.475c1.996 0 3.836.492 5.522 1.475a10.95 10.95 0 0 1 4.003 4.004 10.76 10.76 0 0 1 1.475 5.521z"/><path d="M335.28 103c-4.072.004-7.372 3.303-7.376 7.375 0 .245.06.484.085.723-5.03-.48-9.477-2.904-12.498-6.6-.14-.178-.36-.275-.587-.258s-.43.145-.54.343c-.655 1.122-1 2.4-.998 3.698 0 1.634.584 3.13 1.488 4.358-.176-.078-.367-.12-.532-.213a.68.68 0 0 0-.999.595v.085c0 2.506 1.297 4.682 3.2 6.015-.02-.002-.043.006-.064 0a.68.68 0 0 0-.765.872c.76 2.362 2.7 4.166 5.1 4.825a12.71 12.71 0 0 1-6.525 1.806c-.518 0-1.015-.026-1.5-.085a.68.68 0 0 0-.73.447c-.11.303.01.64.284.807 3.17 2.04 6.86 3.126 10.628 3.125 6.347 0 11.326-2.652 14.666-6.44s5.08-8.7 5.08-13.306c0-.194-.016-.383-.02-.574 1.246-.954 2.36-2.072 3.23-3.38a.68.68 0 0 0-.85-.998c-.35.156-.76.172-1.126.297.483-.646.898-1.342 1.147-2.125a.68.68 0 0 0-.999-.786c-1.16.687-2.447 1.17-3.804 1.466-1.318-1.233-3.053-2.062-4.995-2.062zm0 1.36c1.735 0 3.302.742 4.4 1.913.164.17.406.242.637.192.888-.176 1.73-.434 2.55-.766-.47.64-1.062 1.183-1.742 1.595a.68.68 0 0 0 .446 1.275c.68-.083 1.286-.36 1.935-.532a12.86 12.86 0 0 1-1.913 1.7.68.68 0 0 0-.277.596l.022.83c0 4.25-1.632 8.866-4.74 12.392s-7.673 5.994-13.646 5.994a18.18 18.18 0 0 1-7.588-1.658c2.87-.22 5.516-1.236 7.652-2.912a.68.68 0 0 0-.404-1.212c-2.243-.04-4.12-1.344-5.123-3.188h.107c.672 0 1.336-.085 1.955-.255a.68.68 0 0 0 .492-.675c-.01-.31-.23-.575-.534-.643-2.42-.49-4.235-2.46-4.655-4.9.685.237 1.387.423 2.147.446a.68.68 0 0 0 .403-1.254c-1.675-1.12-2.68-3-2.678-5.016 0-.776.202-1.488.468-2.168 3.4 3.733 8.162 6.212 13.54 6.483a.68.68 0 0 0 .701-.829 6.07 6.07 0 0 1-.17-1.382c-.003-1.596.63-3.128 1.758-4.257s2.66-1.76 4.257-1.758z" class="C"/></g></g></svg>